<mxfile host="Electron" agent="Mozilla/5.0 (Windows NT 10.0; Win64; x64) AppleWebKit/537.36 (KHTML, like Gecko) draw.io/24.7.8 Chrome/128.0.6613.36 Electron/32.0.1 Safari/537.36" version="24.7.8">
  <diagram name="Página-1" id="c1HA0anIp2WIAXssGmQM">
    <mxGraphModel dx="1901" dy="887" grid="1" gridSize="10" guides="1" tooltips="1" connect="1" arrows="1" fold="1" page="1" pageScale="1" pageWidth="827" pageHeight="1169" math="0" shadow="0">
      <root>
        <mxCell id="0" />
        <mxCell id="1" parent="0" />
        <mxCell id="JS7QG2n8h-OuIQ6SjxUy-28" style="edgeStyle=orthogonalEdgeStyle;rounded=0;orthogonalLoop=1;jettySize=auto;html=1;exitX=1;exitY=0.5;exitDx=0;exitDy=0;entryX=0;entryY=0.5;entryDx=0;entryDy=0;" parent="1" source="JS7QG2n8h-OuIQ6SjxUy-1" target="JS7QG2n8h-OuIQ6SjxUy-10" edge="1">
          <mxGeometry relative="1" as="geometry" />
        </mxCell>
        <mxCell id="JS7QG2n8h-OuIQ6SjxUy-30" style="edgeStyle=orthogonalEdgeStyle;rounded=0;orthogonalLoop=1;jettySize=auto;html=1;exitX=0.5;exitY=1;exitDx=0;exitDy=0;" parent="1" source="JS7QG2n8h-OuIQ6SjxUy-1" target="JS7QG2n8h-OuIQ6SjxUy-6" edge="1">
          <mxGeometry relative="1" as="geometry" />
        </mxCell>
        <mxCell id="JS7QG2n8h-OuIQ6SjxUy-1" value="" style="ellipse;whiteSpace=wrap;html=1;aspect=fixed;fillColor=#000000;" parent="1" vertex="1">
          <mxGeometry x="120" y="120" width="20" height="20" as="geometry" />
        </mxCell>
        <mxCell id="JS7QG2n8h-OuIQ6SjxUy-2" value="Inici" style="text;html=1;align=center;verticalAlign=middle;whiteSpace=wrap;rounded=0;fontStyle=1;fontSize=15;" parent="1" vertex="1">
          <mxGeometry x="100" y="90" width="60" height="30" as="geometry" />
        </mxCell>
        <mxCell id="JS7QG2n8h-OuIQ6SjxUy-5" value="cercar esdeveniment" style="text;html=1;align=center;verticalAlign=middle;whiteSpace=wrap;rounded=0;fontStyle=1;fontSize=13;" parent="1" vertex="1">
          <mxGeometry x="130" y="170" width="100" height="30" as="geometry" />
        </mxCell>
        <mxCell id="JS7QG2n8h-OuIQ6SjxUy-6" value="Navegant Esdeveniments" style="rounded=0;whiteSpace=wrap;html=1;fontColor=#FFFFFF;fillColor=#004C99;fontStyle=1;fontSize=14;" parent="1" vertex="1">
          <mxGeometry x="70" y="250" width="120" height="40" as="geometry" />
        </mxCell>
        <mxCell id="JS7QG2n8h-OuIQ6SjxUy-9" value="iniciar&lt;div&gt;sessió /&amp;nbsp;&lt;/div&gt;&lt;div&gt;registrar-se&lt;/div&gt;" style="text;html=1;align=center;verticalAlign=middle;whiteSpace=wrap;rounded=0;fontStyle=1;fontSize=13;" parent="1" vertex="1">
          <mxGeometry x="160" y="90" width="100" height="30" as="geometry" />
        </mxCell>
        <mxCell id="JS7QG2n8h-OuIQ6SjxUy-10" value="Pendent d&#39;Accedir" style="rounded=0;whiteSpace=wrap;html=1;fontColor=#FFFFFF;fillColor=#004C99;fontStyle=1;fontSize=14;" parent="1" vertex="1">
          <mxGeometry x="290" y="110" width="105" height="40" as="geometry" />
        </mxCell>
        <mxCell id="JS7QG2n8h-OuIQ6SjxUy-12" value="introduïr&amp;nbsp;&lt;div&gt;correu&lt;/div&gt;" style="text;html=1;align=center;verticalAlign=middle;whiteSpace=wrap;rounded=0;fontStyle=1;fontSize=13;" parent="1" vertex="1">
          <mxGeometry x="395" y="100" width="100" height="30" as="geometry" />
        </mxCell>
        <mxCell id="JS7QG2n8h-OuIQ6SjxUy-17" value="&lt;b&gt;Pendent Inici de sesió&lt;/b&gt;" style="rounded=1;whiteSpace=wrap;html=1;fillColor=#004C99;fontColor=#FFFFFF;" parent="1" vertex="1">
          <mxGeometry x="530" y="70" width="120" height="40" as="geometry" />
        </mxCell>
        <mxCell id="JS7QG2n8h-OuIQ6SjxUy-18" value="&lt;b&gt;Pendent Registre&lt;/b&gt;" style="rounded=1;whiteSpace=wrap;html=1;fillColor=#004C99;fontColor=#FFFFFF;" parent="1" vertex="1">
          <mxGeometry x="530" y="150" width="120" height="40" as="geometry" />
        </mxCell>
        <mxCell id="JS7QG2n8h-OuIQ6SjxUy-19" value="" style="endArrow=classic;html=1;rounded=0;entryX=0;entryY=0.5;entryDx=0;entryDy=0;" parent="1" target="JS7QG2n8h-OuIQ6SjxUy-17" edge="1">
          <mxGeometry width="50" height="50" relative="1" as="geometry">
            <mxPoint x="490" y="90" as="sourcePoint" />
            <mxPoint x="490" y="200" as="targetPoint" />
          </mxGeometry>
        </mxCell>
        <mxCell id="JS7QG2n8h-OuIQ6SjxUy-20" value="" style="endArrow=classic;html=1;rounded=0;entryX=0;entryY=0.5;entryDx=0;entryDy=0;" parent="1" target="JS7QG2n8h-OuIQ6SjxUy-18" edge="1">
          <mxGeometry width="50" height="50" relative="1" as="geometry">
            <mxPoint x="490" y="170" as="sourcePoint" />
            <mxPoint x="300" y="270" as="targetPoint" />
          </mxGeometry>
        </mxCell>
        <mxCell id="JS7QG2n8h-OuIQ6SjxUy-24" value="" style="endArrow=classic;html=1;rounded=0;entryX=1;entryY=0.5;entryDx=0;entryDy=0;" parent="1" target="JS7QG2n8h-OuIQ6SjxUy-32" edge="1">
          <mxGeometry width="50" height="50" relative="1" as="geometry">
            <mxPoint x="690" y="130" as="sourcePoint" />
            <mxPoint x="730" y="210" as="targetPoint" />
            <Array as="points">
              <mxPoint x="730" y="130" />
              <mxPoint x="730" y="270" />
            </Array>
          </mxGeometry>
        </mxCell>
        <mxCell id="JS7QG2n8h-OuIQ6SjxUy-25" value="introduïr informació" style="text;html=1;align=center;verticalAlign=middle;whiteSpace=wrap;rounded=0;fontStyle=1;fontSize=13;" parent="1" vertex="1">
          <mxGeometry x="720" y="190" width="100" height="30" as="geometry" />
        </mxCell>
        <mxCell id="JS7QG2n8h-OuIQ6SjxUy-33" style="edgeStyle=orthogonalEdgeStyle;rounded=0;orthogonalLoop=1;jettySize=auto;html=1;exitX=0;exitY=0.5;exitDx=0;exitDy=0;entryX=1;entryY=0.5;entryDx=0;entryDy=0;" parent="1" source="JS7QG2n8h-OuIQ6SjxUy-32" target="JS7QG2n8h-OuIQ6SjxUy-6" edge="1">
          <mxGeometry relative="1" as="geometry">
            <mxPoint x="231" y="240" as="targetPoint" />
          </mxGeometry>
        </mxCell>
        <mxCell id="XrdZ0eEAxVnD90h7FGbW-8" style="edgeStyle=orthogonalEdgeStyle;rounded=0;orthogonalLoop=1;jettySize=auto;html=1;exitX=0.5;exitY=1;exitDx=0;exitDy=0;" parent="1" source="JS7QG2n8h-OuIQ6SjxUy-32" target="XrdZ0eEAxVnD90h7FGbW-6" edge="1">
          <mxGeometry relative="1" as="geometry" />
        </mxCell>
        <mxCell id="JS7QG2n8h-OuIQ6SjxUy-32" value="Usuari Registrat" style="rounded=0;whiteSpace=wrap;html=1;fontColor=#FFFFFF;fillColor=#004C99;fontStyle=1;fontSize=14;" parent="1" vertex="1">
          <mxGeometry x="530" y="250" width="120" height="40" as="geometry" />
        </mxCell>
        <mxCell id="JS7QG2n8h-OuIQ6SjxUy-34" value="cercar esdeveniment" style="text;html=1;align=center;verticalAlign=middle;whiteSpace=wrap;rounded=0;fontStyle=1;fontSize=13;" parent="1" vertex="1">
          <mxGeometry x="250" y="240" width="100" height="30" as="geometry" />
        </mxCell>
        <mxCell id="qOLAdGvwmXYtkamBvW7E-2" value="" style="endArrow=classic;html=1;rounded=0;entryX=0.5;entryY=0;entryDx=0;entryDy=0;exitX=0.5;exitY=1;exitDx=0;exitDy=0;" parent="1" source="JS7QG2n8h-OuIQ6SjxUy-6" target="qOLAdGvwmXYtkamBvW7E-4" edge="1">
          <mxGeometry width="50" height="50" relative="1" as="geometry">
            <mxPoint x="130" y="290" as="sourcePoint" />
            <mxPoint x="250" y="330" as="targetPoint" />
          </mxGeometry>
        </mxCell>
        <mxCell id="qOLAdGvwmXYtkamBvW7E-4" value="Seleccionant Entrades" style="rounded=0;whiteSpace=wrap;html=1;fontColor=#FFFFFF;fillColor=#004C99;fontStyle=1;fontSize=14;" parent="1" vertex="1">
          <mxGeometry x="70" y="350" width="120" height="40" as="geometry" />
        </mxCell>
        <mxCell id="qOLAdGvwmXYtkamBvW7E-6" value="seleccionar esdeveniment" style="text;html=1;align=center;verticalAlign=middle;whiteSpace=wrap;rounded=0;fontStyle=1;fontSize=13;" parent="1" vertex="1">
          <mxGeometry x="130" y="300" width="100" height="30" as="geometry" />
        </mxCell>
        <mxCell id="XrdZ0eEAxVnD90h7FGbW-9" style="edgeStyle=orthogonalEdgeStyle;rounded=0;orthogonalLoop=1;jettySize=auto;html=1;exitX=1;exitY=0.5;exitDx=0;exitDy=0;entryX=0;entryY=0.5;entryDx=0;entryDy=0;" parent="1" source="qOLAdGvwmXYtkamBvW7E-7" target="XrdZ0eEAxVnD90h7FGbW-6" edge="1">
          <mxGeometry relative="1" as="geometry" />
        </mxCell>
        <mxCell id="XrdZ0eEAxVnD90h7FGbW-18" style="edgeStyle=orthogonalEdgeStyle;rounded=0;orthogonalLoop=1;jettySize=auto;html=1;entryX=0.5;entryY=1;entryDx=0;entryDy=0;exitX=0.5;exitY=0;exitDx=0;exitDy=0;" parent="1" source="qOLAdGvwmXYtkamBvW7E-7" target="JS7QG2n8h-OuIQ6SjxUy-10" edge="1">
          <mxGeometry relative="1" as="geometry">
            <mxPoint x="311" y="370" as="sourcePoint" />
            <Array as="points">
              <mxPoint x="361" y="350" />
              <mxPoint x="361" y="170" />
              <mxPoint x="343" y="170" />
            </Array>
          </mxGeometry>
        </mxCell>
        <mxCell id="qOLAdGvwmXYtkamBvW7E-7" value="&lt;font style=&quot;font-size: 12px;&quot;&gt;Entrades Confirmades&lt;/font&gt;" style="rounded=0;whiteSpace=wrap;html=1;fontColor=#FFFFFF;fillColor=#004C99;fontStyle=1;fontSize=14;" parent="1" vertex="1">
          <mxGeometry x="295" y="350" width="120" height="40" as="geometry" />
        </mxCell>
        <mxCell id="qOLAdGvwmXYtkamBvW7E-8" value="" style="endArrow=classic;html=1;rounded=0;entryX=0;entryY=0.5;entryDx=0;entryDy=0;exitX=1;exitY=0.5;exitDx=0;exitDy=0;" parent="1" source="qOLAdGvwmXYtkamBvW7E-4" target="qOLAdGvwmXYtkamBvW7E-7" edge="1">
          <mxGeometry width="50" height="50" relative="1" as="geometry">
            <mxPoint x="430" y="370" as="sourcePoint" />
            <mxPoint x="490" y="340" as="targetPoint" />
          </mxGeometry>
        </mxCell>
        <mxCell id="qOLAdGvwmXYtkamBvW7E-9" value="confirmar entrades" style="text;html=1;align=center;verticalAlign=middle;whiteSpace=wrap;rounded=0;fontStyle=1;fontSize=13;" parent="1" vertex="1">
          <mxGeometry x="190" y="340" width="100" height="30" as="geometry" />
        </mxCell>
        <mxCell id="XrdZ0eEAxVnD90h7FGbW-1" value="" style="endArrow=none;html=1;rounded=0;exitX=1.048;exitY=0.5;exitDx=0;exitDy=0;exitPerimeter=0;" parent="1" source="JS7QG2n8h-OuIQ6SjxUy-10" edge="1">
          <mxGeometry width="50" height="50" relative="1" as="geometry">
            <mxPoint x="460" y="180" as="sourcePoint" />
            <mxPoint x="490" y="130" as="targetPoint" />
          </mxGeometry>
        </mxCell>
        <mxCell id="XrdZ0eEAxVnD90h7FGbW-2" value="" style="endArrow=none;html=1;rounded=0;" parent="1" edge="1">
          <mxGeometry width="50" height="50" relative="1" as="geometry">
            <mxPoint x="490" y="170" as="sourcePoint" />
            <mxPoint x="490" y="90" as="targetPoint" />
          </mxGeometry>
        </mxCell>
        <mxCell id="XrdZ0eEAxVnD90h7FGbW-3" value="" style="endArrow=none;html=1;rounded=0;" parent="1" edge="1">
          <mxGeometry width="50" height="50" relative="1" as="geometry">
            <mxPoint x="690" y="170" as="sourcePoint" />
            <mxPoint x="690" y="90" as="targetPoint" />
          </mxGeometry>
        </mxCell>
        <mxCell id="XrdZ0eEAxVnD90h7FGbW-4" value="" style="endArrow=none;html=1;rounded=0;entryX=1;entryY=0.5;entryDx=0;entryDy=0;" parent="1" target="JS7QG2n8h-OuIQ6SjxUy-17" edge="1">
          <mxGeometry width="50" height="50" relative="1" as="geometry">
            <mxPoint x="690" y="90" as="sourcePoint" />
            <mxPoint x="510" y="130" as="targetPoint" />
          </mxGeometry>
        </mxCell>
        <mxCell id="XrdZ0eEAxVnD90h7FGbW-5" value="" style="endArrow=none;html=1;rounded=0;exitX=1;exitY=0.5;exitDx=0;exitDy=0;" parent="1" source="JS7QG2n8h-OuIQ6SjxUy-18" edge="1">
          <mxGeometry width="50" height="50" relative="1" as="geometry">
            <mxPoint x="460" y="180" as="sourcePoint" />
            <mxPoint x="690" y="170" as="targetPoint" />
          </mxGeometry>
        </mxCell>
        <mxCell id="XrdZ0eEAxVnD90h7FGbW-23" style="edgeStyle=orthogonalEdgeStyle;rounded=0;orthogonalLoop=1;jettySize=auto;html=1;exitX=0.5;exitY=1;exitDx=0;exitDy=0;entryX=0.5;entryY=0;entryDx=0;entryDy=0;" parent="1" source="XrdZ0eEAxVnD90h7FGbW-6" edge="1">
          <mxGeometry relative="1" as="geometry">
            <mxPoint x="590" y="450" as="targetPoint" />
          </mxGeometry>
        </mxCell>
        <mxCell id="XrdZ0eEAxVnD90h7FGbW-6" value="&lt;font style=&quot;font-size: 12px;&quot;&gt;Elegint Complements&lt;/font&gt;" style="rounded=0;whiteSpace=wrap;html=1;fontColor=#FFFFFF;fillColor=#004C99;fontStyle=1;fontSize=14;" parent="1" vertex="1">
          <mxGeometry x="530" y="350" width="120" height="40" as="geometry" />
        </mxCell>
        <mxCell id="XrdZ0eEAxVnD90h7FGbW-10" value="continuar reserva" style="text;html=1;align=center;verticalAlign=middle;whiteSpace=wrap;rounded=0;fontStyle=1;fontSize=13;" parent="1" vertex="1">
          <mxGeometry x="501" y="300" width="100" height="30" as="geometry" />
        </mxCell>
        <mxCell id="XrdZ0eEAxVnD90h7FGbW-12" value="credencials no vàlides" style="text;html=1;align=center;verticalAlign=middle;whiteSpace=wrap;rounded=0;fontStyle=1;fontSize=13;" parent="1" vertex="1">
          <mxGeometry x="490" y="200" width="100" height="30" as="geometry" />
        </mxCell>
        <mxCell id="XrdZ0eEAxVnD90h7FGbW-14" style="edgeStyle=orthogonalEdgeStyle;rounded=0;orthogonalLoop=1;jettySize=auto;html=1;exitX=1;exitY=0;exitDx=0;exitDy=0;entryX=0.5;entryY=0;entryDx=0;entryDy=0;" parent="1" source="JS7QG2n8h-OuIQ6SjxUy-17" target="JS7QG2n8h-OuIQ6SjxUy-17" edge="1">
          <mxGeometry relative="1" as="geometry">
            <Array as="points">
              <mxPoint x="650" y="40" />
              <mxPoint x="590" y="40" />
            </Array>
          </mxGeometry>
        </mxCell>
        <mxCell id="XrdZ0eEAxVnD90h7FGbW-15" style="edgeStyle=orthogonalEdgeStyle;rounded=0;orthogonalLoop=1;jettySize=auto;html=1;exitX=1;exitY=1;exitDx=0;exitDy=0;entryX=0.5;entryY=1;entryDx=0;entryDy=0;" parent="1" source="JS7QG2n8h-OuIQ6SjxUy-18" target="JS7QG2n8h-OuIQ6SjxUy-18" edge="1">
          <mxGeometry relative="1" as="geometry" />
        </mxCell>
        <mxCell id="XrdZ0eEAxVnD90h7FGbW-16" value="credencials no vàlides" style="text;html=1;align=center;verticalAlign=middle;whiteSpace=wrap;rounded=0;fontStyle=1;fontSize=13;" parent="1" vertex="1">
          <mxGeometry x="650" y="30" width="100" height="30" as="geometry" />
        </mxCell>
        <mxCell id="XrdZ0eEAxVnD90h7FGbW-17" value="continuar fora registre" style="text;html=1;align=center;verticalAlign=middle;whiteSpace=wrap;rounded=0;fontStyle=1;fontSize=13;" parent="1" vertex="1">
          <mxGeometry x="421" y="340" width="100" height="30" as="geometry" />
        </mxCell>
        <mxCell id="XrdZ0eEAxVnD90h7FGbW-19" value="iniciar&lt;div&gt;sessió /&amp;nbsp;&lt;/div&gt;&lt;div&gt;registrar-se&lt;/div&gt;" style="text;html=1;align=center;verticalAlign=middle;whiteSpace=wrap;rounded=0;fontStyle=1;fontSize=13;" parent="1" vertex="1">
          <mxGeometry x="350" y="200" width="100" height="30" as="geometry" />
        </mxCell>
        <mxCell id="XrdZ0eEAxVnD90h7FGbW-21" style="edgeStyle=orthogonalEdgeStyle;rounded=0;orthogonalLoop=1;jettySize=auto;html=1;exitX=1;exitY=0;exitDx=0;exitDy=0;entryX=1;entryY=1;entryDx=0;entryDy=0;" parent="1" source="XrdZ0eEAxVnD90h7FGbW-6" target="XrdZ0eEAxVnD90h7FGbW-6" edge="1">
          <mxGeometry relative="1" as="geometry">
            <Array as="points">
              <mxPoint x="670" y="340" />
              <mxPoint x="690" y="340" />
              <mxPoint x="690" y="410" />
              <mxPoint x="670" y="410" />
            </Array>
          </mxGeometry>
        </mxCell>
        <mxCell id="XrdZ0eEAxVnD90h7FGbW-22" value="seleccionar complement" style="text;html=1;align=center;verticalAlign=middle;whiteSpace=wrap;rounded=0;fontStyle=1;fontSize=13;" parent="1" vertex="1">
          <mxGeometry x="690" y="355" width="100" height="30" as="geometry" />
        </mxCell>
        <mxCell id="XrdZ0eEAxVnD90h7FGbW-25" style="edgeStyle=orthogonalEdgeStyle;rounded=0;orthogonalLoop=1;jettySize=auto;html=1;exitX=0;exitY=1;exitDx=0;exitDy=0;entryX=0.5;entryY=1;entryDx=0;entryDy=0;" parent="1" source="qOLAdGvwmXYtkamBvW7E-4" target="qOLAdGvwmXYtkamBvW7E-4" edge="1">
          <mxGeometry relative="1" as="geometry" />
        </mxCell>
        <mxCell id="XrdZ0eEAxVnD90h7FGbW-26" value="elegir quantitat d&#39;entrades" style="text;html=1;align=center;verticalAlign=middle;whiteSpace=wrap;rounded=0;fontStyle=1;fontSize=13;" parent="1" vertex="1">
          <mxGeometry x="60" y="410" width="100" height="30" as="geometry" />
        </mxCell>
        <mxCell id="XrdZ0eEAxVnD90h7FGbW-29" value="confirmar complements" style="text;html=1;align=center;verticalAlign=middle;whiteSpace=wrap;rounded=0;fontStyle=1;fontSize=13;" parent="1" vertex="1">
          <mxGeometry x="495" y="400" width="100" height="30" as="geometry" />
        </mxCell>
        <mxCell id="QRBm0bpMLHnxkaxe2OVv-11" style="edgeStyle=orthogonalEdgeStyle;rounded=0;orthogonalLoop=1;jettySize=auto;html=1;exitX=0;exitY=0.5;exitDx=0;exitDy=0;" edge="1" parent="1" source="QRBm0bpMLHnxkaxe2OVv-7" target="QRBm0bpMLHnxkaxe2OVv-8">
          <mxGeometry relative="1" as="geometry">
            <Array as="points">
              <mxPoint x="501" y="470" />
              <mxPoint x="501" y="470" />
            </Array>
          </mxGeometry>
        </mxCell>
        <mxCell id="QRBm0bpMLHnxkaxe2OVv-7" value="&lt;font style=&quot;font-size: 12px;&quot;&gt;Introduint Dades Del Comprador&lt;/font&gt;" style="rounded=0;whiteSpace=wrap;html=1;fontColor=#FFFFFF;fillColor=#004C99;fontStyle=1;fontSize=14;" vertex="1" parent="1">
          <mxGeometry x="530" y="450" width="120" height="40" as="geometry" />
        </mxCell>
        <mxCell id="QRBm0bpMLHnxkaxe2OVv-14" style="edgeStyle=orthogonalEdgeStyle;rounded=0;orthogonalLoop=1;jettySize=auto;html=1;exitX=0;exitY=0.5;exitDx=0;exitDy=0;entryX=1;entryY=0.5;entryDx=0;entryDy=0;" edge="1" parent="1" source="QRBm0bpMLHnxkaxe2OVv-8" target="QRBm0bpMLHnxkaxe2OVv-13">
          <mxGeometry relative="1" as="geometry" />
        </mxCell>
        <mxCell id="QRBm0bpMLHnxkaxe2OVv-8" value="&lt;font style=&quot;font-size: 12px;&quot;&gt;Introduint Dades Dels Asistents&lt;/font&gt;" style="rounded=0;whiteSpace=wrap;html=1;fontColor=#FFFFFF;fillColor=#004C99;fontStyle=1;fontSize=14;" vertex="1" parent="1">
          <mxGeometry x="295" y="450" width="120" height="40" as="geometry" />
        </mxCell>
        <mxCell id="QRBm0bpMLHnxkaxe2OVv-12" value="dades d&#39;asistents pendents" style="text;html=1;align=center;verticalAlign=middle;whiteSpace=wrap;rounded=0;fontStyle=1;fontSize=13;" vertex="1" parent="1">
          <mxGeometry x="421" y="480" width="100" height="30" as="geometry" />
        </mxCell>
        <mxCell id="QRBm0bpMLHnxkaxe2OVv-23" style="edgeStyle=orthogonalEdgeStyle;rounded=0;orthogonalLoop=1;jettySize=auto;html=1;exitX=1;exitY=1;exitDx=0;exitDy=0;entryX=0.5;entryY=1;entryDx=0;entryDy=0;" edge="1" parent="1" source="QRBm0bpMLHnxkaxe2OVv-13" target="QRBm0bpMLHnxkaxe2OVv-7">
          <mxGeometry relative="1" as="geometry">
            <Array as="points">
              <mxPoint x="190" y="550" />
              <mxPoint x="590" y="550" />
            </Array>
          </mxGeometry>
        </mxCell>
        <mxCell id="QRBm0bpMLHnxkaxe2OVv-24" style="edgeStyle=orthogonalEdgeStyle;rounded=0;orthogonalLoop=1;jettySize=auto;html=1;exitX=0.75;exitY=1;exitDx=0;exitDy=0;entryX=0.5;entryY=1;entryDx=0;entryDy=0;" edge="1" parent="1" source="QRBm0bpMLHnxkaxe2OVv-13" target="QRBm0bpMLHnxkaxe2OVv-8">
          <mxGeometry relative="1" as="geometry">
            <Array as="points">
              <mxPoint x="160" y="570" />
              <mxPoint x="355" y="570" />
            </Array>
          </mxGeometry>
        </mxCell>
        <mxCell id="QRBm0bpMLHnxkaxe2OVv-27" style="edgeStyle=orthogonalEdgeStyle;rounded=0;orthogonalLoop=1;jettySize=auto;html=1;exitX=0.5;exitY=1;exitDx=0;exitDy=0;" edge="1" parent="1" source="QRBm0bpMLHnxkaxe2OVv-13" target="QRBm0bpMLHnxkaxe2OVv-26">
          <mxGeometry relative="1" as="geometry" />
        </mxCell>
        <mxCell id="QRBm0bpMLHnxkaxe2OVv-13" value="&lt;font style=&quot;font-size: 12px;&quot;&gt;Seleccionant Mètode De Pagament&lt;/font&gt;" style="rounded=0;whiteSpace=wrap;html=1;fontColor=#FFFFFF;fillColor=#004C99;fontStyle=1;fontSize=14;" vertex="1" parent="1">
          <mxGeometry x="70" y="445" width="120" height="50" as="geometry" />
        </mxCell>
        <mxCell id="QRBm0bpMLHnxkaxe2OVv-15" value="pendent selecció mètode pagament" style="text;html=1;align=center;verticalAlign=middle;whiteSpace=wrap;rounded=0;fontStyle=1;fontSize=13;" vertex="1" parent="1">
          <mxGeometry x="195" y="490" width="100" height="30" as="geometry" />
        </mxCell>
        <mxCell id="QRBm0bpMLHnxkaxe2OVv-18" value="dades d&#39;asistents incorrectes o incompletes" style="text;html=1;align=center;verticalAlign=middle;whiteSpace=wrap;rounded=0;fontStyle=1;fontSize=13;" vertex="1" parent="1">
          <mxGeometry x="160" y="580" width="171" height="30" as="geometry" />
        </mxCell>
        <mxCell id="QRBm0bpMLHnxkaxe2OVv-19" value="dades del comprador incorrectes o incompletes" style="text;html=1;align=center;verticalAlign=middle;whiteSpace=wrap;rounded=0;fontStyle=1;fontSize=13;" vertex="1" parent="1">
          <mxGeometry x="371" y="560" width="171" height="30" as="geometry" />
        </mxCell>
        <mxCell id="QRBm0bpMLHnxkaxe2OVv-33" style="edgeStyle=orthogonalEdgeStyle;rounded=0;orthogonalLoop=1;jettySize=auto;html=1;exitX=1;exitY=0.5;exitDx=0;exitDy=0;entryX=0;entryY=0.5;entryDx=0;entryDy=0;" edge="1" parent="1" source="QRBm0bpMLHnxkaxe2OVv-26" target="QRBm0bpMLHnxkaxe2OVv-32">
          <mxGeometry relative="1" as="geometry" />
        </mxCell>
        <mxCell id="QRBm0bpMLHnxkaxe2OVv-26" value="&lt;font style=&quot;font-size: 12px;&quot;&gt;Introduint Dades Del Pagament&lt;/font&gt;" style="rounded=0;whiteSpace=wrap;html=1;fontColor=#FFFFFF;fillColor=#004C99;fontStyle=1;fontSize=14;" vertex="1" parent="1">
          <mxGeometry x="70" y="650" width="120" height="40" as="geometry" />
        </mxCell>
        <mxCell id="QRBm0bpMLHnxkaxe2OVv-28" value="confirmar dades finals" style="text;html=1;align=center;verticalAlign=middle;whiteSpace=wrap;rounded=0;fontStyle=1;fontSize=13;" vertex="1" parent="1">
          <mxGeometry x="40" y="550" width="100" height="30" as="geometry" />
        </mxCell>
        <mxCell id="QRBm0bpMLHnxkaxe2OVv-30" value="error procesant el pagament" style="text;html=1;align=center;verticalAlign=middle;whiteSpace=wrap;rounded=0;fontStyle=1;fontSize=13;" vertex="1" parent="1">
          <mxGeometry x="190" y="720" width="100" height="30" as="geometry" />
        </mxCell>
        <mxCell id="QRBm0bpMLHnxkaxe2OVv-35" style="edgeStyle=orthogonalEdgeStyle;rounded=0;orthogonalLoop=1;jettySize=auto;html=1;exitX=0.5;exitY=1;exitDx=0;exitDy=0;entryX=0.5;entryY=1;entryDx=0;entryDy=0;" edge="1" parent="1" source="QRBm0bpMLHnxkaxe2OVv-32" target="QRBm0bpMLHnxkaxe2OVv-26">
          <mxGeometry relative="1" as="geometry" />
        </mxCell>
        <mxCell id="QRBm0bpMLHnxkaxe2OVv-38" style="edgeStyle=orthogonalEdgeStyle;rounded=0;orthogonalLoop=1;jettySize=auto;html=1;exitX=1;exitY=0.5;exitDx=0;exitDy=0;entryX=0;entryY=0.5;entryDx=0;entryDy=0;" edge="1" parent="1" source="QRBm0bpMLHnxkaxe2OVv-32" target="QRBm0bpMLHnxkaxe2OVv-37">
          <mxGeometry relative="1" as="geometry" />
        </mxCell>
        <mxCell id="QRBm0bpMLHnxkaxe2OVv-32" value="&lt;font style=&quot;font-size: 12px;&quot;&gt;Pendent Confirmació Pagament&lt;/font&gt;" style="rounded=0;whiteSpace=wrap;html=1;fontColor=#FFFFFF;fillColor=#004C99;fontStyle=1;fontSize=14;" vertex="1" parent="1">
          <mxGeometry x="295" y="645" width="120" height="50" as="geometry" />
        </mxCell>
        <mxCell id="QRBm0bpMLHnxkaxe2OVv-36" value="confirmar dades pagament" style="text;html=1;align=center;verticalAlign=middle;whiteSpace=wrap;rounded=0;fontStyle=1;fontSize=13;" vertex="1" parent="1">
          <mxGeometry x="190" y="630" width="100" height="30" as="geometry" />
        </mxCell>
        <mxCell id="QRBm0bpMLHnxkaxe2OVv-40" style="edgeStyle=orthogonalEdgeStyle;rounded=0;orthogonalLoop=1;jettySize=auto;html=1;exitX=0.5;exitY=1;exitDx=0;exitDy=0;entryX=0;entryY=0.5;entryDx=0;entryDy=0;" edge="1" parent="1" source="QRBm0bpMLHnxkaxe2OVv-37" target="JS7QG2n8h-OuIQ6SjxUy-6">
          <mxGeometry relative="1" as="geometry">
            <Array as="points">
              <mxPoint x="590" y="780" />
              <mxPoint x="40" y="780" />
              <mxPoint x="40" y="270" />
            </Array>
          </mxGeometry>
        </mxCell>
        <mxCell id="QRBm0bpMLHnxkaxe2OVv-50" style="edgeStyle=orthogonalEdgeStyle;rounded=0;orthogonalLoop=1;jettySize=auto;html=1;exitX=1;exitY=0.5;exitDx=0;exitDy=0;entryX=0;entryY=0.5;entryDx=0;entryDy=0;" edge="1" parent="1" source="QRBm0bpMLHnxkaxe2OVv-37" target="QRBm0bpMLHnxkaxe2OVv-48">
          <mxGeometry relative="1" as="geometry" />
        </mxCell>
        <mxCell id="QRBm0bpMLHnxkaxe2OVv-37" value="Informació de la Reserva" style="rounded=0;whiteSpace=wrap;html=1;fontColor=#FFFFFF;fillColor=#004C99;fontStyle=1;fontSize=14;" vertex="1" parent="1">
          <mxGeometry x="530" y="650" width="120" height="40" as="geometry" />
        </mxCell>
        <mxCell id="QRBm0bpMLHnxkaxe2OVv-39" value="pagament confirmat" style="text;html=1;align=center;verticalAlign=middle;whiteSpace=wrap;rounded=0;fontStyle=1;fontSize=13;" vertex="1" parent="1">
          <mxGeometry x="421" y="670" width="100" height="30" as="geometry" />
        </mxCell>
        <mxCell id="QRBm0bpMLHnxkaxe2OVv-41" value="continuar navegant" style="text;html=1;align=center;verticalAlign=middle;whiteSpace=wrap;rounded=0;fontStyle=1;fontSize=13;" vertex="1" parent="1">
          <mxGeometry x="271" y="780" width="100" height="30" as="geometry" />
        </mxCell>
        <mxCell id="QRBm0bpMLHnxkaxe2OVv-43" value="sortir" style="text;html=1;align=center;verticalAlign=middle;whiteSpace=wrap;rounded=0;fontStyle=1;fontSize=13;" vertex="1" parent="1">
          <mxGeometry x="637.5" y="645" width="100" height="30" as="geometry" />
        </mxCell>
        <mxCell id="QRBm0bpMLHnxkaxe2OVv-48" value="" style="ellipse;whiteSpace=wrap;html=1;aspect=fixed;" vertex="1" parent="1">
          <mxGeometry x="737.5" y="655" width="30" height="30" as="geometry" />
        </mxCell>
        <mxCell id="QRBm0bpMLHnxkaxe2OVv-46" value="" style="ellipse;whiteSpace=wrap;html=1;aspect=fixed;fillColor=#000000;" vertex="1" parent="1">
          <mxGeometry x="740" y="657.5" width="25" height="25" as="geometry" />
        </mxCell>
        <mxCell id="QRBm0bpMLHnxkaxe2OVv-51" value="Final" style="text;html=1;align=center;verticalAlign=middle;whiteSpace=wrap;rounded=0;fontStyle=1;fontSize=15;" vertex="1" parent="1">
          <mxGeometry x="722.5" y="627.5" width="60" height="30" as="geometry" />
        </mxCell>
      </root>
    </mxGraphModel>
  </diagram>
</mxfile>
